<?xml version="1.0" encoding="UTF-8" standalone="no"?>
<!DOCTYPE svg PUBLIC "-//W3C//DTD SVG 1.1//EN" "http://www.w3.org/Graphics/SVG/1.1/DTD/svg11.dtd">
<svg width="100%" height="100%" viewBox="0 0 516 127" version="1.1" xmlns="http://www.w3.org/2000/svg" xmlns:xlink="http://www.w3.org/1999/xlink" xml:space="preserve" xmlns:serif="http://www.serif.com/" style="fill-rule:evenodd;clip-rule:evenodd;stroke-linejoin:round;stroke-miterlimit:2;">
    <g transform="matrix(1,0,0,1,-13163.5,-155.66)">
        <g id="Artboard36" transform="matrix(1,0,0,0.800824,22.6847,179.915)">
            <rect x="13140.8" y="-30.287" width="515.993" height="158.515" style="fill:none;"/>
            <clipPath id="_clip1">
                <rect x="13140.8" y="-30.287" width="515.993" height="158.515"/>
            </clipPath>
            <g clip-path="url(#_clip1)">
                <g transform="matrix(11.9598,0,0,9.50529,-259064,1829.34)">
                    <g>
                        <g transform="matrix(0.062265,0,0,0.0978281,21360.5,-197.397)">
                            <path d="M22843.7,85.195C22848,89.262 22850.1,96.033 22850.1,105.509C22850.1,113.129 22848.2,119.241 22844.4,123.852C22840.5,128.462 22835.3,130.765 22828.7,130.765C22823.9,130.765 22819.8,129.903 22816.6,128.173L22816.6,146.708L22802.6,146.708L22802.6,91.006C22802.6,87.101 22804.7,84.156 22809,82.171C22813.4,80.186 22818.9,79.161 22825.6,79.097C22833.4,79.097 22839.4,81.131 22843.7,85.195ZM22787.2,85.195C22791.5,89.262 22793.6,96.033 22793.6,105.509C22793.6,113.129 22791.7,119.241 22787.9,123.852C22784.1,128.462 22778.8,130.765 22772.2,130.765C22767.4,130.765 22763.3,129.903 22760.1,128.173L22760.1,146.708L22746.1,146.708L22746.1,91.006C22746.1,87.101 22748.3,84.156 22752.6,82.171C22756.9,80.186 22762.4,79.161 22769.1,79.097C22776.9,79.097 22782.9,81.131 22787.2,85.195ZM22867.3,129.854C22865,129.247 22862.5,128.365 22859.7,127.215L22859.7,114.633C22864.8,118.537 22870.2,120.491 22875.9,120.491C22878.1,120.491 22879.7,120.123 22880.6,119.385C22881.6,118.651 22882.1,117.642 22882.1,116.36C22882.1,114.888 22881.3,113.801 22879.7,113.095C22878.1,112.39 22875.6,111.623 22872.1,110.789C22868.4,110.022 22865.4,108.484 22863,106.181C22860.6,103.875 22859.4,100.514 22859.4,96.095C22859.4,92.32 22860.3,89.213 22862.2,86.78C22864.2,84.347 22866.6,82.569 22869.5,81.45C22872.4,80.329 22875.4,79.768 22878.5,79.768C22882.3,79.768 22885.4,80.105 22887.8,80.776C22890.2,81.45 22892.5,82.49 22894.8,83.897L22894.8,95.134C22891.6,93.342 22889.1,92.062 22887.3,91.291C22885.5,90.525 22883.4,90.142 22881.1,90.142C22878.7,90.142 22877,90.509 22875.8,91.245C22874.7,91.981 22874.1,93.022 22874.1,94.367C22874.1,95.967 22874.7,97.137 22876,97.871C22877.3,98.609 22879.3,99.359 22882.1,100.129C22885.3,100.963 22887.8,101.777 22889.7,102.577C22891.5,103.379 22893.2,104.754 22894.6,106.707C22896.1,108.662 22896.8,111.399 22896.8,114.916C22896.7,120.425 22894.6,124.443 22890.6,126.971C22886.6,129.499 22881.5,130.764 22875.3,130.764C22872.3,130.766 22869.6,130.464 22867.3,129.854ZM22967.5,124.236C22963.4,119.881 22961.4,113.417 22961.4,104.836C22961.4,95.872 22963.4,89.341 22967.4,85.242C22971.5,81.146 22977.6,79.097 22985.8,79.097C22994.1,79.097 23000.2,81.194 23004.4,85.386C23008.5,89.581 23010.6,96.065 23010.6,104.836C23010.6,113.287 23008.5,119.721 23004.2,124.137C22999.9,128.556 22993.8,130.763 22985.8,130.763C22977.7,130.763 22971.6,128.589 22967.5,124.236ZM23030.9,81.118C23036,79.965 23040.5,79.389 23044.5,79.389C23051.3,79.389 23056.5,80.734 23059.9,83.423C23063.3,86.112 23065.1,90.53 23065.1,96.675L23065.1,129.328L23050.8,129.328L23050.8,99.558C23050.8,93.986 23047.7,91.202 23041.5,91.202C23040.1,91.202 23038.6,91.362 23037.2,91.682C23035.7,92.002 23034.5,92.388 23033.7,92.835L23033.7,129.328L23019.5,129.328L23019.5,84.861C23022,83.518 23025.8,82.269 23030.9,81.118ZM22717.1,115.498L22693.3,115.498L22688.7,129.327L22674,129.327L22698.1,65.271L22715,65.271L22737.6,129.327L22721.7,129.327L22717.1,115.498ZM22950.5,62.389L22936.3,62.389L22936.3,129.327L22950.5,129.327L22950.5,62.389ZM22908.3,81.403L22922.6,81.403L22922.7,129.326L22908.3,129.326L22908.3,81.403ZM22993.8,115.638C22995.6,113.175 22996.4,109.573 22996.4,104.835C22996.4,99.648 22995.6,95.951 22993.8,93.742C22992.1,91.534 22989.4,90.428 22985.8,90.428C22982.1,90.428 22979.5,91.534 22977.9,93.742C22976.2,95.951 22975.4,99.648 22975.4,104.835C22975.4,109.766 22976.3,113.416 22978,115.781C22979.6,118.151 22982.3,119.335 22985.8,119.335C22989.3,119.337 22992,118.103 22993.8,115.638ZM22833.1,115.976C22834.9,113.801 22835.9,110.151 22835.9,105.029C22835.9,100.418 22835,96.947 22833.4,94.607C22831.8,92.271 22829,91.101 22825.1,91.101C22819.4,91.101 22816.6,92.192 22816.6,94.368L22816.6,117.224C22817.7,117.928 22819,118.441 22820.4,118.761C22821.8,119.083 22823.1,119.239 22824.5,119.239C22828.4,119.241 22831.2,118.154 22833.1,115.976ZM22776.6,115.976C22778.5,113.801 22779.4,110.151 22779.4,105.029C22779.4,100.418 22778.6,96.947 22776.9,94.607C22775.3,92.271 22772.5,91.101 22768.6,91.101C22762.9,91.101 22760.1,92.192 22760.1,94.368L22760.1,117.224C22761.2,117.928 22762.5,118.441 22763.9,118.761C22765.3,119.083 22766.7,119.239 22768,119.239C22771.9,119.241 22774.8,118.154 22776.6,115.976ZM22713.2,104.068L22705.1,79.866L22697.1,104.068L22713.2,104.068ZM22908,63.059L22922.7,63.059L22922.7,74.104L22908,74.104L22908,63.059Z" style="fill:rgb(110,117,124);fill-rule:nonzero;"/>
                        </g>
                        <g transform="matrix(0.062265,0,0,0.0978281,21360.5,-197.397)">
                            <path d="M22843.7,85.195C22848,89.262 22850.1,96.033 22850.1,105.509C22850.1,113.129 22848.2,119.241 22844.4,123.852C22840.5,128.462 22835.3,130.765 22828.7,130.765C22823.9,130.765 22819.8,129.903 22816.6,128.173L22816.6,146.708L22802.6,146.708L22802.6,91.006C22802.6,87.101 22804.7,84.156 22809,82.171C22813.4,80.186 22818.9,79.161 22825.6,79.097C22833.4,79.097 22839.4,81.131 22843.7,85.195ZM22787.2,85.195C22791.5,89.262 22793.6,96.033 22793.6,105.509C22793.6,113.129 22791.7,119.241 22787.9,123.852C22784.1,128.462 22778.8,130.765 22772.2,130.765C22767.4,130.765 22763.3,129.903 22760.1,128.173L22760.1,146.708L22746.1,146.708L22746.1,91.006C22746.1,87.101 22748.3,84.156 22752.6,82.171C22756.9,80.186 22762.4,79.161 22769.1,79.097C22776.9,79.097 22782.9,81.131 22787.2,85.195ZM22867.3,129.854C22865,129.247 22862.5,128.365 22859.7,127.215L22859.7,114.633C22864.8,118.537 22870.2,120.491 22875.9,120.491C22878.1,120.491 22879.7,120.123 22880.6,119.385C22881.6,118.651 22882.1,117.642 22882.1,116.36C22882.1,114.888 22881.3,113.801 22879.7,113.095C22878.1,112.39 22875.6,111.623 22872.1,110.789C22868.4,110.022 22865.4,108.484 22863,106.181C22860.6,103.875 22859.4,100.514 22859.4,96.095C22859.4,92.32 22860.3,89.213 22862.2,86.78C22864.2,84.347 22866.6,82.569 22869.5,81.45C22872.4,80.329 22875.4,79.768 22878.5,79.768C22882.3,79.768 22885.4,80.105 22887.8,80.776C22890.2,81.45 22892.5,82.49 22894.8,83.897L22894.8,95.134C22891.6,93.342 22889.1,92.062 22887.3,91.291C22885.5,90.525 22883.4,90.142 22881.1,90.142C22878.7,90.142 22877,90.509 22875.8,91.245C22874.7,91.981 22874.1,93.022 22874.1,94.367C22874.1,95.967 22874.7,97.137 22876,97.871C22877.3,98.609 22879.3,99.359 22882.1,100.129C22885.3,100.963 22887.8,101.777 22889.7,102.577C22891.5,103.379 22893.2,104.754 22894.6,106.707C22896.1,108.662 22896.8,111.399 22896.8,114.916C22896.7,120.425 22894.6,124.443 22890.6,126.971C22886.6,129.499 22881.5,130.764 22875.3,130.764C22872.3,130.766 22869.6,130.464 22867.3,129.854ZM22967.5,124.236C22963.4,119.881 22961.4,113.417 22961.4,104.836C22961.4,95.872 22963.4,89.341 22967.4,85.242C22971.5,81.146 22977.6,79.097 22985.8,79.097C22994.1,79.097 23000.2,81.194 23004.4,85.386C23008.5,89.581 23010.6,96.065 23010.6,104.836C23010.6,113.287 23008.5,119.721 23004.2,124.137C22999.9,128.556 22993.8,130.763 22985.8,130.763C22977.7,130.763 22971.6,128.589 22967.5,124.236ZM23030.9,81.118C23036,79.965 23040.5,79.389 23044.5,79.389C23051.3,79.389 23056.5,80.734 23059.9,83.423C23063.3,86.112 23065.1,90.53 23065.1,96.675L23065.1,129.328L23050.8,129.328L23050.8,99.558C23050.8,93.986 23047.7,91.202 23041.5,91.202C23040.1,91.202 23038.6,91.362 23037.2,91.682C23035.7,92.002 23034.5,92.388 23033.7,92.835L23033.7,129.328L23019.5,129.328L23019.5,84.861C23022,83.518 23025.8,82.269 23030.9,81.118ZM22717.1,115.498L22693.3,115.498L22688.7,129.327L22674,129.327L22698.1,65.271L22715,65.271L22737.6,129.327L22721.7,129.327L22717.1,115.498ZM22950.5,62.389L22936.3,62.389L22936.3,129.327L22950.5,129.327L22950.5,62.389ZM22908.3,81.403L22922.6,81.403L22922.7,129.326L22908.3,129.326L22908.3,81.403ZM22993.8,115.638C22995.6,113.175 22996.4,109.573 22996.4,104.835C22996.4,99.648 22995.6,95.951 22993.8,93.742C22992.1,91.534 22989.4,90.428 22985.8,90.428C22982.1,90.428 22979.5,91.534 22977.9,93.742C22976.2,95.951 22975.4,99.648 22975.4,104.835C22975.4,109.766 22976.3,113.416 22978,115.781C22979.6,118.151 22982.3,119.335 22985.8,119.335C22989.3,119.337 22992,118.103 22993.8,115.638ZM22833.1,115.976C22834.9,113.801 22835.9,110.151 22835.9,105.029C22835.9,100.418 22835,96.947 22833.4,94.607C22831.8,92.271 22829,91.101 22825.1,91.101C22819.4,91.101 22816.6,92.192 22816.6,94.368L22816.6,117.224C22817.7,117.928 22819,118.441 22820.4,118.761C22821.8,119.083 22823.1,119.239 22824.5,119.239C22828.4,119.241 22831.2,118.154 22833.1,115.976ZM22776.6,115.976C22778.5,113.801 22779.4,110.151 22779.4,105.029C22779.4,100.418 22778.6,96.947 22776.9,94.607C22775.3,92.271 22772.5,91.101 22768.6,91.101C22762.9,91.101 22760.1,92.192 22760.1,94.368L22760.1,117.224C22761.2,117.928 22762.5,118.441 22763.9,118.761C22765.3,119.083 22766.7,119.239 22768,119.239C22771.9,119.241 22774.8,118.154 22776.6,115.976ZM22713.2,104.068L22705.1,79.866L22697.1,104.068L22713.2,104.068ZM22908,63.059L22922.7,63.059L22922.7,74.104L22908,74.104L22908,63.059Z" style="fill:rgb(110,117,124);fill-rule:nonzero;"/>
                        </g>
                        <g transform="matrix(0.106566,0,0,0.0681675,20366.4,-178.937)">
                            <g transform="matrix(4.1601,0,0,10.218,22461.4,-327.351)">
                                <path d="M1.431,9.183L1.431,30.855L20.111,20.019L1.431,9.183ZM7.26,20.018L2.119,28.965L2.119,11.071L7.26,20.018ZM7.657,20.018L7.657,20.018L7.657,20.018L7.657,20.018ZM7.856,20.363L18.139,20.364L2.715,29.311L7.856,20.363ZM7.855,19.672L2.715,10.726L18.138,19.673L7.855,19.672Z" style="fill:rgb(201,207,212);fill-rule:nonzero;"/>
                            </g>
                            <g transform="matrix(4.1601,0,0,10.218,22461.4,-327.351)">
                                <path d="M0.92,8.295C0.067,8.79 -0.226,9.891 0.267,10.749C0.76,11.606 1.855,11.902 2.708,11.407C3.562,10.911 3.856,9.811 3.363,8.953C2.87,8.095 1.774,7.799 0.92,8.295Z" style="fill:rgb(0,156,255);fill-rule:nonzero;"/>
                            </g>
                            <g transform="matrix(4.1601,0,0,10.218,22461.4,-327.351)">
                                <path d="M6.763,18.462C5.909,18.956 5.617,20.058 6.11,20.915C6.602,21.773 7.697,22.068 8.551,21.574C9.405,21.078 9.699,19.977 9.206,19.119C8.713,18.261 7.617,17.966 6.763,18.462Z" style="fill:rgb(0,156,255);fill-rule:nonzero;"/>
                            </g>
                            <g transform="matrix(4.1601,0,0,10.218,22461.4,-327.351)">
                                <path d="M0.893,28.594C0.039,29.089 -0.254,30.191 0.24,31.049C0.733,31.906 1.827,32.201 2.681,31.706C3.535,31.211 3.829,30.11 3.336,29.252C2.843,28.394 1.747,28.098 0.893,28.594Z" style="fill:rgb(0,156,255);fill-rule:nonzero;"/>
                            </g>
                            <g transform="matrix(4.1601,0,0,10.218,22461.4,-327.351)">
                                <path d="M18.431,18.42C17.577,18.915 17.285,20.016 17.778,20.874C18.27,21.732 19.366,22.028 20.219,21.532C21.073,21.037 21.367,19.936 20.874,19.078C20.381,18.22 19.285,17.924 18.431,18.42Z" style="fill:rgb(0,156,255);fill-rule:nonzero;"/>
                            </g>
                        </g>
                    </g>
                </g>
            </g>
        </g>
    </g>
</svg>
